<svg xmlns="http://www.w3.org/2000/svg" viewBox="0 0 1366 768"><defs><style>.cls-1{fill:#323f41;opacity:0.8;}.cls-2{opacity:0.5;}.cls-3{fill:#fff;opacity:0.1;}</style></defs><g id="Capa_2" data-name="Capa 2"><g id="Layer_1" data-name="Layer 1"><rect class="cls-1" width="1366" height="768"/><g class="cls-2"><path class="cls-3" d="M1310.53,572.78a63.15,63.15,0,0,0-19.12-23.88,82.38,82.38,0,0,0-28.29-13.81,203.76,203.76,0,0,0-34.74-6.33,113.39,113.39,0,0,0,27.5-7.24,92.8,92.8,0,0,0,24.89-14,72.55,72.55,0,0,0,17.54-20.93,56.61,56.61,0,0,0,6.79-27.95,74.45,74.45,0,0,0-7.69-36,58.92,58.92,0,0,0-20.71-22.07,84.39,84.39,0,0,0-30-11.31,188.85,188.85,0,0,0-35.75-3.17h-12.34c-5.88,0-12.11.57-18.67.68s-12.9,0-18.9.68-10.29,0-12.67,0c-10.18,0-17.76-.57-22.63-.91l-16.18-1.36q2.27,37.35,2.94,74.46v10.07c5.55,5.66,11.32,11.32,15.84,17.43A149.93,149.93,0,0,1,1158.79,540h0l.79,3.62v2.49h0a90.26,90.26,0,0,1,2.15,19.24,105.08,105.08,0,0,1-6.56,36.21,91.68,91.68,0,0,1-21.05,33.38A102.08,102.08,0,0,1,1111,653.68c0,14-.91,27.72-1.58,41.3,7.24,0,14.37-.79,21.61-1.36s14.37-.9,21.61-.9c9.62,0,19,0,28.4,1.13s18.67,1.13,28.29,1.13a172,172,0,0,0,31.8-2.49,120.9,120.9,0,0,0,22.63-6.33,87.66,87.66,0,0,0,16-8.26,77.13,77.13,0,0,0,11.32-9.06l7.24-7.46a71.67,71.67,0,0,0,9-12.11,82,82,0,0,0,7.36-17.31,72.91,72.91,0,0,0,3.17-22.64A85.1,85.1,0,0,0,1310.53,572.78ZM1166.71,446.49V428.28l.91-17.66c10.18-.9,20.59-1.35,31.11-1.35a44.32,44.32,0,0,1,35.53,14.14A54.92,54.92,0,0,1,1246.83,460a59.18,59.18,0,0,1-15.73,45.26,63,63,0,0,1-45.27,15h-8.93l-9.51-.68Zm74.34,210a69.44,69.44,0,0,1-49.1,16,76.6,76.6,0,0,1-12.11-.9l-12.22-1.81q0-9.51-.68-20.71V541.88a104.59,104.59,0,0,1,16.29-1.35,145.53,145.53,0,0,1,31,3.16A56.64,56.64,0,0,1,1237.89,555a51.77,51.77,0,0,1,15,20.71,82.47,82.47,0,0,1,5.2,31.91A64.14,64.14,0,0,1,1241.05,656.51Z"/><path class="cls-3" d="M1235.51,297.47c-15.16-1.36-79.21.91-111-37.34-36.66-45.26-45.26-87.13-59.74-83.17s7.58,28.06-36.21,40.4C993.7,227.2,972,193.93,959.3,197.78s13.8,27.5,1.36,50.81-42.21,16.07-47.75,27.61c-2.95,8.6,16,22.63,19.91,36.55,6.22,21.95-41.75,39.83-38,53.18s29.42,6,35.42,27.27-10.19,37.11-2.94,49.56C953.75,488,1110.7,492.21,1110.7,601.18a58.9,58.9,0,0,1-4.3,22.63,51.93,51.93,0,0,1-11.32,17.76,55,55,0,0,1-18.44,11.32,64,64,0,0,1-24.33,4.3,96.16,96.16,0,0,1-20.48-1,53,53,0,0,1-18-7.13,65.38,65.38,0,0,1-16-15.61A122.65,122.65,0,0,1,982,606.27h-6.79c-.67,5.32-1.13,10-1.58,13.69s-1,7.47-1.58,11.32a110.1,110.1,0,0,1-2.72,11.31c-1.24,4.08-2.72,8.94-4.53,14.6,4,2.15,8.72,4.41,14.49,7s12,5,19.12,7.47a170.35,170.35,0,0,0,23.31,6,140.19,140.19,0,0,0,27.27,2.49,136.75,136.75,0,0,0,52.62-9.28,104.77,104.77,0,0,0,35.42-22.63,87.79,87.79,0,0,0,20-31.8,101.76,101.76,0,0,0,6.23-34.62,84.81,84.81,0,0,0-2-18.45V561h0c-23.88-93.69-198.59-157.74-124.47-219.3l-2.83-2.26a44.77,44.77,0,0,1-4.3-3.85l-4-4.18a51.44,51.44,0,0,1-3.05-4.3,30.11,30.11,0,0,1-2.38-4l-1-1.93v-1.69a12.13,12.13,0,0,1-.9-3V314.1l.79,2.49a24,24,0,0,0,1.13,2.72l.79,1.58,1.13,1.81a51.23,51.23,0,0,0,6.11,7.36,42.54,42.54,0,0,0,4.08,3.62c1.47,1.13,2.83,2.26,4.41,3.28l4.75,2.94h0a42.44,42.44,0,0,0,4.53,2.38l1.47.68h1c40.51,15.84,99.35-24.67,148.57-10.3,30.89,8.71,35.53,5.43,40.28-5.54S1250.22,298.83,1235.51,297.47Zm-151.17-37.34a6.9,6.9,0,1,1,6.78-7v.12a6.78,6.78,0,0,1-6.67,6.9Z"/><circle class="cls-3" cx="1217.63" cy="267.14" r="9.62"/><circle class="cls-3" cx="1247.16" cy="246.44" r="6.79"/><circle class="cls-3" cx="1250.45" cy="205.59" r="5.77"/><circle class="cls-3" cx="1233.02" cy="178.77" r="5.77"/><circle class="cls-3" cx="1213.1" cy="219.51" r="10.64"/></g></g></g></svg>