<svg xmlns="http://www.w3.org/2000/svg" viewBox="0 0 51.58 51.58"><defs><style>.cls-1{fill:#fff;}</style></defs><g id="Capa_2" data-name="Capa 2"><g id="Layer_1" data-name="Layer 1"><path class="cls-1" d="M46.82,51.58H36.54a3.23,3.23,0,0,1-3.23-3.22V31.17H38.9l.84-6.48-6.43,0V20.35a3.09,3.09,0,0,1,3-3.16h3.45V12.08a40.63,40.63,0,0,0-4.8-.26c-5.3,0-8.1,2.79-8.1,8.08v4.79H20.42v6.48h6.44V48.36a3.22,3.22,0,0,1-3.21,3.22H4.76A4.76,4.76,0,0,1,0,46.82v-.61a2.15,2.15,0,0,1,4.3,0v.61a.46.46,0,0,0,.46.46H22.57V35.47H20.42a4.29,4.29,0,0,1-4.3-4.3V24.69a4.29,4.29,0,0,1,4.3-4.3h2.15V19.9c0-7.63,4.74-12.38,12.39-12.38a43.83,43.83,0,0,1,5.37.3,4.31,4.31,0,0,1,3.73,4.26v5.31A4.11,4.11,0,0,1,41.91,21,4.26,4.26,0,0,1,44,25.24l-.83,6.49a4.31,4.31,0,0,1-4.26,3.74H37.61V47.28h9.21a.45.45,0,0,0,.46-.46h0V4.76a.45.45,0,0,0-.46-.46H4.76a.46.46,0,0,0-.46.46V37.57a2.15,2.15,0,0,1-4.3,0V4.76A4.76,4.76,0,0,1,4.76,0H46.82a4.76,4.76,0,0,1,4.76,4.76V46.82A4.76,4.76,0,0,1,46.82,51.58Z"/></g></g></svg>