<svg xmlns="http://www.w3.org/2000/svg" viewBox="0 0 51.58 51.58"><defs><style>.cls-1{fill:#fff;}</style></defs><g id="Capa_2" data-name="Capa 2"><g id="Layer_1" data-name="Layer 1"><path class="cls-1" d="M38.68,0H12.89A12.93,12.93,0,0,0,0,12.89v25.8A12.93,12.93,0,0,0,12.89,51.58H38.68a12.93,12.93,0,0,0,12.9-12.89V12.89A12.93,12.93,0,0,0,38.68,0Zm8.6,38.69a8.6,8.6,0,0,1-8.6,8.59H12.89A8.6,8.6,0,0,1,4.3,38.69V12.89A8.6,8.6,0,0,1,12.89,4.3H38.68a8.6,8.6,0,0,1,8.6,8.59Z"/><circle class="cls-1" cx="39.76" cy="11.82" r="3.22"/><path class="cls-1" d="M25.79,12.89a12.9,12.9,0,1,0,12.89,12.9A12.91,12.91,0,0,0,25.79,12.89Zm0,21.5a8.6,8.6,0,1,1,8.6-8.6A8.6,8.6,0,0,1,25.79,34.39Z"/></g></g></svg>