<svg xmlns="http://www.w3.org/2000/svg" xmlns:xlink="http://www.w3.org/1999/xlink" viewBox="0 0 117.08 65.68"><defs><style>.cls-1{fill:#389be7;}.cls-2{fill:#38b1e7;}.cls-3{fill:url(#linear-gradient);}.cls-4{fill:url(#linear-gradient-2);}.cls-5{fill:url(#linear-gradient-3);}.cls-6{fill:url(#linear-gradient-4);}.cls-7{fill:url(#linear-gradient-5);}.cls-8{fill:url(#linear-gradient-6);}.cls-9{fill:url(#linear-gradient-7);}</style><linearGradient id="linear-gradient" x1="68.02" y1="46.13" x2="68.02" y2="18.84" gradientUnits="userSpaceOnUse"><stop offset="0" stop-color="#3895e7"/><stop offset="1" stop-color="#38cee7"/></linearGradient><linearGradient id="linear-gradient-2" x1="55.26" y1="44.81" x2="55.26" y2="0.33" xlink:href="#linear-gradient"/><linearGradient id="linear-gradient-3" x1="68.42" y1="9.17" x2="68.42" y2="7.47" xlink:href="#linear-gradient"/><linearGradient id="linear-gradient-4" x1="71.03" y1="7.09" x2="71.03" y2="5.89" xlink:href="#linear-gradient"/><linearGradient id="linear-gradient-5" x1="71.32" y1="3.39" x2="71.32" y2="2.36" xlink:href="#linear-gradient"/><linearGradient id="linear-gradient-6" x1="69.78" y1="1.03" x2="69.78" y2="0" xlink:href="#linear-gradient"/><linearGradient id="linear-gradient-7" x1="68.02" y1="5.05" x2="68.02" y2="3.17" xlink:href="#linear-gradient"/></defs><title>Asset 2</title><g id="Layer_2" data-name="Layer 2"><g id="Layer_1-2" data-name="Layer 1"><path class="cls-1" d="M1.77,51.31h0A1.83,1.83,0,0,1,2.33,51a2.32,2.32,0,0,1,.7-.1,2.28,2.28,0,0,1,.7.1,1.84,1.84,0,0,1,.56.28,1,1,0,0,1,.32.35.62.62,0,0,1,.11.34l0,.65L6,51.93l0-.28a2.11,2.11,0,0,0-.31-.76,3,3,0,0,0-.6-.63h0A3.41,3.41,0,0,0,3,49.63a3.66,3.66,0,0,0-1.1.16,3.13,3.13,0,0,0-.95.47H1a2.44,2.44,0,0,0-.7.77A1.92,1.92,0,0,0,0,52a2,2,0,0,0,.38,1.18,2.66,2.66,0,0,0,1,.83h0a3.69,3.69,0,0,0,.94.28l.57.09h0a5.54,5.54,0,0,1,.76.12,1.64,1.64,0,0,1,.41.13,1.36,1.36,0,0,1,.47.39.69.69,0,0,1,0,.76,1,1,0,0,1-.34.35h0A2,2,0,0,1,3,56.52a2.34,2.34,0,0,1-.71-.1,1.49,1.49,0,0,1-.55-.27h0a1.21,1.21,0,0,1-.32-.32.76.76,0,0,1-.11-.37l0-.65L0,55.53l.06.28a1.94,1.94,0,0,0,.32.77,2.35,2.35,0,0,0,.6.62H1a2.91,2.91,0,0,0,1,.47,3.67,3.67,0,0,0,1.1.17,3.48,3.48,0,0,0,2.05-.63h0a2.36,2.36,0,0,0,.7-.78,2.09,2.09,0,0,0,.24-1,2,2,0,0,0-.35-1.12,2.78,2.78,0,0,0-.93-.83h0a2.33,2.33,0,0,0-.58-.22h0c-.21-.06-.43-.1-.65-.14l-.39-.05h0c-.29,0-.53-.07-.7-.11h0A1.64,1.64,0,0,1,2,52.85a1.35,1.35,0,0,1-.48-.41A.69.69,0,0,1,1.33,52a.66.66,0,0,1,.1-.34A1.12,1.12,0,0,1,1.77,51.31Z"/><polygon class="cls-1" points="7.54 57.75 7.95 57.75 13.03 57.75 13.03 56.42 8.85 56.42 8.85 54.39 12.11 54.39 12.11 53.08 8.85 53.08 8.85 51.03 13.03 51.03 13.03 49.72 7.54 49.72 7.54 57.75"/><path class="cls-1" d="M14,57.75h1.44l.86-1.84h3.33l.81,1.84h1.42l-3.81-8.7Zm4-5.51,1.05,2.37H16.91Z"/><polygon class="cls-1" points="27.66 53.08 24.19 53.08 24.19 49.72 22.87 49.72 22.87 53.48 22.87 57.75 24.19 57.75 24.19 54.39 27.66 54.39 27.66 57.75 28.96 57.75 28.96 53.72 28.96 49.72 27.66 49.72 27.66 53.08"/><path class="cls-1" d="M36.39,50.19a4.06,4.06,0,0,0-4.08,0,4,4,0,0,0-1.48,1.49,4.09,4.09,0,0,0,3.52,6.15,4,4,0,0,0,2-.55,4.09,4.09,0,0,0,1.48-1.5,4.16,4.16,0,0,0,0-4.1A4,4,0,0,0,36.39,50.19Zm-2,6.32A2.61,2.61,0,0,1,33,56.14a2.83,2.83,0,0,1-1.39-2.41A2.79,2.79,0,0,1,32,52.34a2.82,2.82,0,0,1,1-1A2.71,2.71,0,0,1,34.35,51a2.74,2.74,0,0,1,1.38.37,2.87,2.87,0,0,1,1,1,2.65,2.65,0,0,1,.37,1.39,2.69,2.69,0,0,1-.37,1.4,2.77,2.77,0,0,1-1,1A2.64,2.64,0,0,1,34.35,56.51Z"/><path class="cls-1" d="M43.92,54.31h0a2.51,2.51,0,0,0,1-.82,2.23,2.23,0,0,0,.45-1.34,2.1,2.1,0,0,0-.21-.92,2.52,2.52,0,0,0-.59-.79,2.89,2.89,0,0,0-.91-.54,3.34,3.34,0,0,0-1.1-.18H39.67v8H41V53.89l3.18,3.86h1.71L43.2,54.53A2.83,2.83,0,0,0,43.92,54.31ZM41,51h1.62a1.69,1.69,0,0,1,.82.18,1.35,1.35,0,0,1,.52.44.9.9,0,0,1,.16.51.84.84,0,0,1-.19.55,1.31,1.31,0,0,1-.5.42,3.18,3.18,0,0,1-1.17.18H41Z"/><polygon class="cls-1" points="44.6 50.44 44.6 50.44 44.6 50.44 44.6 50.44"/><path class="cls-1" d="M48.46,51.31h0A1.88,1.88,0,0,1,49,51a2.37,2.37,0,0,1,.7-.1,2.28,2.28,0,0,1,.7.1,1.84,1.84,0,0,1,.56.28,1.19,1.19,0,0,1,.33.35.61.61,0,0,1,.1.34l0,.65,1.3-.72-.05-.28a1.94,1.94,0,0,0-.31-.76,2.74,2.74,0,0,0-.6-.63h0a3.41,3.41,0,0,0-2.05-.63,3.6,3.6,0,0,0-1.09.16,3.3,3.3,0,0,0-1,.47h0A2.3,2.3,0,0,0,47,51a1.93,1.93,0,0,0-.26,1,2,2,0,0,0,.38,1.18,2.66,2.66,0,0,0,1,.83h0a3.69,3.69,0,0,0,.94.28l.57.09h0a5.3,5.3,0,0,1,.76.12,1.5,1.5,0,0,1,.41.13,1.36,1.36,0,0,1,.47.39.69.69,0,0,1,0,.76,1.07,1.07,0,0,1-.33.35h0a2,2,0,0,1-1.26.37,2.28,2.28,0,0,1-.7-.1,1.49,1.49,0,0,1-.55-.27h0a1.21,1.21,0,0,1-.32-.32.89.89,0,0,1-.11-.37l0-.65-1.3.73.06.28a1.94,1.94,0,0,0,.32.77,2.35,2.35,0,0,0,.6.62h0a3.07,3.07,0,0,0,1,.47,3.6,3.6,0,0,0,1.09.17,3.48,3.48,0,0,0,2.05-.63h0a2.36,2.36,0,0,0,.7-.78,2.1,2.1,0,0,0,.25-1,2,2,0,0,0-.36-1.12,2.78,2.78,0,0,0-.93-.83h0a2.33,2.33,0,0,0-.58-.22,6.2,6.2,0,0,0-.65-.14l-.39-.05h0c-.3,0-.53-.07-.71-.11a1.52,1.52,0,0,1-.41-.12,1.3,1.3,0,0,1-.49-.41A.75.75,0,0,1,48,52a.66.66,0,0,1,.1-.34A1.12,1.12,0,0,1,48.46,51.31Z"/><polygon class="cls-1" points="54.24 57.75 54.64 57.75 59.72 57.75 59.72 56.42 55.54 56.42 55.54 54.39 58.8 54.39 58.8 53.08 55.54 53.08 55.54 51.03 59.72 51.03 59.72 49.72 54.24 49.72 54.24 57.75"/><path class="cls-1" d="M70.62,54.24l.32-.25a2.73,2.73,0,0,0-.82-.7,2.2,2.2,0,0,0,.21-.32h0a2.05,2.05,0,0,0,.26-1,2,2,0,0,0-.19-.85,2.25,2.25,0,0,0-.51-.72h0a2.26,2.26,0,0,0-.84-.51,3.19,3.19,0,0,0-1-.16H65.53v8h3.06a3,3,0,0,0,1.08-.19,2.73,2.73,0,0,0,.91-.52h0a2.41,2.41,0,0,0,.59-.79h0A2.19,2.19,0,0,0,70.94,54Zm-1.5-1.81a1,1,0,0,1-.4.32,1.81,1.81,0,0,1-.31.09l-.43,0H66.83V51H68a1.57,1.57,0,0,1,.74.15.91.91,0,0,1,.41.35.73.73,0,0,1,.14.43A.69.69,0,0,1,69.12,52.43Zm.27,3.84a1.8,1.8,0,0,1-.81.17H66.83V54.18h1.38a2.88,2.88,0,0,1,1.18.2,1.31,1.31,0,0,1,.5.39.91.91,0,0,1,.19.54,1,1,0,0,1-.17.52,1.36,1.36,0,0,1-.52.44l.19.35Z"/><polygon class="cls-1" points="74.02 49.72 72.71 49.72 72.71 57.75 73.11 57.75 78.08 57.75 78.08 56.45 74.02 56.45 74.02 49.72"/><path class="cls-1" d="M84.36,54.62a1.85,1.85,0,0,1-.15.74,1.64,1.64,0,0,1-.39.6,1.77,1.77,0,0,1-.61.41,1.87,1.87,0,0,1-.71.14,1.9,1.9,0,0,1-.7-.14,1.81,1.81,0,0,1-1-1,1.84,1.84,0,0,1-.14-.74v-4.9H79.35v4.9a3.21,3.21,0,0,0,.24,1.23,2.81,2.81,0,0,0,.68,1h0a3.21,3.21,0,0,0,1,.7,3.16,3.16,0,0,0,1.21.25,3.08,3.08,0,0,0,2.24-.95h0a3.09,3.09,0,0,0,.68-1,3.4,3.4,0,0,0,.23-1.23v-4.9h-1.3Z"/><polygon class="cls-1" points="87.34 57.75 87.74 57.75 92.82 57.75 92.82 56.42 88.64 56.42 88.64 54.39 91.9 54.39 91.9 53.08 88.64 53.08 88.64 51.03 92.82 51.03 92.82 49.72 87.34 49.72 87.34 57.75"/><polygon class="cls-1" points="98.75 57.75 99.15 57.75 100.05 57.75 100.05 49.72 98.75 49.72 98.75 57.75"/><polygon class="cls-1" points="106.98 54.91 101.97 48.92 101.97 57.75 103.28 57.75 103.28 52.58 108.28 58.58 108.28 49.72 106.98 49.72 106.98 54.91"/><path class="cls-1" d="M116.05,55.18l-.25.3a2.72,2.72,0,0,1-1,.76,2.72,2.72,0,0,1-2.55-.1,2.9,2.9,0,0,1-1-1,2.83,2.83,0,0,1,0-2.8,2.9,2.9,0,0,1,1-1,2.71,2.71,0,0,1,2.48-.13,2.69,2.69,0,0,1,.92.68l.27.3,1-.88-.28-.3a4,4,0,0,0-1.37-1,3.86,3.86,0,0,0-1.63-.35,3.93,3.93,0,0,0-2,.55,4.14,4.14,0,0,0-1.48,1.49,4.16,4.16,0,0,0,0,4.1,4.09,4.09,0,0,0,1.48,1.5,4,4,0,0,0,3.79.15,4,4,0,0,0,1.41-1.12l.25-.32Z"/><path class="cls-2" d="M20.8,63.76a2.81,2.81,0,0,1-.11.8,1.46,1.46,0,0,1-.33.6,1.38,1.38,0,0,1-.53.39,2.18,2.18,0,0,1-.75.13l-.38,0a3.14,3.14,0,0,1-.4-.08l.05-.58a.23.23,0,0,1,.06-.12.21.21,0,0,1,.16,0,.53.53,0,0,1,.16,0,.85.85,0,0,0,.25,0,1,1,0,0,0,.36-.06.66.66,0,0,0,.27-.19,1,1,0,0,0,.16-.34,1.88,1.88,0,0,0,.05-.5v-3.4h1Z"/><path class="cls-2" d="M27.32,60.39v.78H25v1.45h1.83v.75H25v1.47h2.32v.78H24V60.39Z"/><path class="cls-2" d="M34,60.39v.8H32.44v4.43h-1V61.19H29.89v-.8Z"/><path class="cls-2" d="M43.16,61.35a.2.2,0,0,1-.09.11.24.24,0,0,1-.12,0,.32.32,0,0,1-.17-.06l-.21-.12a1.57,1.57,0,0,0-.29-.13,1.48,1.48,0,0,0-.39,0,1,1,0,0,0-.35,0,.84.84,0,0,0-.25.13.51.51,0,0,0-.15.21.59.59,0,0,0,0,.27.44.44,0,0,0,.1.3.71.71,0,0,0,.27.21,2.42,2.42,0,0,0,.39.16l.44.15a3.38,3.38,0,0,1,.44.18,1.16,1.16,0,0,1,.39.26,1.19,1.19,0,0,1,.27.38,1.31,1.31,0,0,1,.11.55,1.67,1.67,0,0,1-.13.67,1.57,1.57,0,0,1-.35.54,1.64,1.64,0,0,1-.57.36,2,2,0,0,1-.77.13,2.72,2.72,0,0,1-.49-.05,2.24,2.24,0,0,1-.46-.14,2.1,2.1,0,0,1-.42-.22A1.87,1.87,0,0,1,40,65l.29-.46a.2.2,0,0,1,.09-.09.28.28,0,0,1,.13,0,.32.32,0,0,1,.19.07l.25.17a1.8,1.8,0,0,0,.34.16,1.24,1.24,0,0,0,.46.07.94.94,0,0,0,.64-.19.69.69,0,0,0,.23-.57.48.48,0,0,0-.1-.33.84.84,0,0,0-.27-.22,2.26,2.26,0,0,0-.39-.15l-.44-.14a3.34,3.34,0,0,1-.44-.17,1.56,1.56,0,0,1-.39-.26,1.33,1.33,0,0,1-.27-.41,1.5,1.5,0,0,1-.11-.6,1.38,1.38,0,0,1,.12-.56,1.29,1.29,0,0,1,.33-.48,1.84,1.84,0,0,1,.54-.34,2,2,0,0,1,.72-.12,2.63,2.63,0,0,1,.86.14,1.85,1.85,0,0,1,.66.41Z"/><path class="cls-2" d="M47.41,62.59h.23a.73.73,0,0,0,.23,0,.61.61,0,0,0,.16-.12l1.44-1.83a.47.47,0,0,1,.19-.16.58.58,0,0,1,.25,0h.84L49,62.57l-.16.17-.16.11a.88.88,0,0,1,.21.12,1.84,1.84,0,0,1,.19.2l1.81,2.45H50a.39.39,0,0,1-.4-.19L48.14,63.5a.52.52,0,0,0-.16-.14.83.83,0,0,0-.26,0h-.31v2.3h-1V60.39h1Z"/><path class="cls-2" d="M54.72,65.62h-1V60.39h1Z"/><path class="cls-2" d="M62.63,63.58v2h-1V60.39h1.59a3.07,3.07,0,0,1,.92.12,1.84,1.84,0,0,1,.63.3,1.24,1.24,0,0,1,.35.48,1.51,1.51,0,0,1,.12.61,1.69,1.69,0,0,1-.08.5,1.42,1.42,0,0,1-.59.76,1.71,1.71,0,0,1-.49.23.91.91,0,0,1,.32.3l1.31,1.93h-.87a.48.48,0,0,1-.22-.05.4.4,0,0,1-.15-.14l-1.1-1.68a.4.4,0,0,0-.13-.13.46.46,0,0,0-.22,0Zm0-.7h.61a1.43,1.43,0,0,0,.48-.07.82.82,0,0,0,.33-.19.69.69,0,0,0,.2-.28,1.11,1.11,0,0,0,.07-.37.73.73,0,0,0-.27-.61,1.25,1.25,0,0,0-.8-.21h-.62Z"/><path class="cls-2" d="M71.83,60.39v.78H69.51v1.45h1.83v.75H69.51v1.47h2.32v.78h-3.3V60.39Z"/><path class="cls-2" d="M75.46,60.4l.07,0a.18.18,0,0,1,.07,0l.07.08,2.75,3.5a2.29,2.29,0,0,1,0-.25,1.85,1.85,0,0,1,0-.23V60.39h.86v5.23h-.5a.6.6,0,0,1-.2,0,.43.43,0,0,1-.14-.13L75.67,62a2,2,0,0,1,0,.23c0,.08,0,.15,0,.21v3.21h-.86V60.39h.62Z"/><path class="cls-2" d="M86.16,60.39v.8H84.58v4.43h-1V61.19H82v-.8Z"/><path class="cls-2" d="M93,65.62h-.76a.32.32,0,0,1-.2-.06.31.31,0,0,1-.12-.16l-.39-1.07H89.37L89,65.4a.27.27,0,0,1-.11.15.31.31,0,0,1-.21.07h-.75l2-5.23h1Zm-3.39-2h1.67l-.64-1.74q0-.12-.09-.27c0-.11-.07-.22-.11-.35a2.92,2.92,0,0,1-.1.35c0,.1-.06.2-.09.28Z"/><path class="cls-2" d="M96.69,64.82h2.09v.8H95.71V60.39h1Z"/><path class="cls-3" d="M76.63,35.33a5.59,5.59,0,0,0-1.69-2.11A7.27,7.27,0,0,0,72.44,32a18,18,0,0,0-3.07-.56,10,10,0,0,0,2.43-.64A8.19,8.19,0,0,0,74,29.56a6.43,6.43,0,0,0,1.55-1.85,5,5,0,0,0,.6-2.47,6.58,6.58,0,0,0-.68-3.18,5.2,5.2,0,0,0-1.83-1.95,7.44,7.44,0,0,0-2.65-1,16.74,16.74,0,0,0-3.16-.28c-.21,0-.57,0-1.09,0s-1.07.05-1.65.06-1.14,0-1.67.06-.91,0-1.12,0c-.9,0-1.57-.05-2-.08l-1.43-.12q.2,3.3.26,6.58c0,.3,0,.59,0,.89.49.5,1,1,1.4,1.54a13.24,13.24,0,0,1,2.69,4.67h0l.07.32c0,.1,0,.17,0,.22h0a8,8,0,0,1,.19,1.7,9.3,9.3,0,0,1-.58,3.2,8.1,8.1,0,0,1-1.86,2.95A9,9,0,0,1,59,42.48c0,1.24-.08,2.45-.14,3.65.64,0,1.27-.07,1.91-.12s1.27-.08,1.91-.08c.85,0,1.68,0,2.51.1s1.65.1,2.5.1a15.25,15.25,0,0,0,2.81-.22,10.64,10.64,0,0,0,2-.56,7.7,7.7,0,0,0,1.41-.73,6.9,6.9,0,0,0,1-.8l.64-.66a6.32,6.32,0,0,0,.8-1.07A7.2,7.2,0,0,0,77,40.56a6.42,6.42,0,0,0,.28-2A7.52,7.52,0,0,0,76.63,35.33ZM63.92,24.17c0-.53,0-1.07,0-1.61L64,21c.9-.08,1.82-.12,2.75-.12a3.92,3.92,0,0,1,3.14,1.25A4.85,4.85,0,0,1,71,25.36a5.23,5.23,0,0,1-1.39,4,5.57,5.57,0,0,1-4,1.33c-.26,0-.53,0-.79,0l-.84-.06Zm6.57,18.56a6.14,6.14,0,0,1-4.34,1.41,6.87,6.87,0,0,1-1.07-.08L64,43.9q0-.84-.06-1.83c0-.66,0-1.15,0-1.47v-8a9.22,9.22,0,0,1,1.44-.12,12.82,12.82,0,0,1,2.74.28,5,5,0,0,1,2.09,1,4.57,4.57,0,0,1,1.33,1.83A7.29,7.29,0,0,1,72,38.41,5.67,5.67,0,0,1,70.49,42.73Z"/><path class="cls-4" d="M70,11c-1.34-.12-7,.08-9.81-3.3-3.24-4-4-7.7-5.28-7.35s.67,2.48-3.2,3.57c-3.08.87-5-2.07-6.12-1.73s1.22,2.43.12,4.49-3.73,1.42-4.22,2.44c-.26.76,1.41,2,1.76,3.23.55,1.94-3.69,3.52-3.36,4.7s2.6.53,3.13,2.41-.9,3.28-.26,4.38c2.34,4,16.21,4.37,16.21,14a5.19,5.19,0,0,1-.38,2,4.61,4.61,0,0,1-1,1.57,4.87,4.87,0,0,1-1.63,1,5.64,5.64,0,0,1-2.15.38A8.5,8.5,0,0,1,52,42.7a4.68,4.68,0,0,1-1.59-.63A5.77,5.77,0,0,1,49,40.69a10.78,10.78,0,0,1-1.4-2.4H47c-.06.47-.1.88-.14,1.21s-.09.66-.14,1a9.68,9.68,0,0,1-.24,1c-.11.36-.24.79-.4,1.29.35.19.77.39,1.28.62s1.06.44,1.69.66a15.05,15.05,0,0,0,2.06.53,12.41,12.41,0,0,0,2.41.22A12.08,12.08,0,0,0,58.17,44,9.25,9.25,0,0,0,61.3,42a7.76,7.76,0,0,0,1.77-2.81,9,9,0,0,0,.55-3.06,7.47,7.47,0,0,0-.18-1.63c0-.07,0-.13,0-.21h0c-2.11-8.28-17.55-13.94-11-19.38l-.25-.2a4,4,0,0,1-.38-.34L51.46,14a4.44,4.44,0,0,1-.27-.38,2.7,2.7,0,0,1-.21-.35l-.09-.17,0-.15a1.08,1.08,0,0,1-.08-.26l0-.22.07.22a2.08,2.08,0,0,0,.1.24l.07.14.1.16a4.49,4.49,0,0,0,.54.65,3.73,3.73,0,0,0,.36.32c.13.1.25.2.39.29l.42.26h0a3.84,3.84,0,0,0,.4.21l.13.06.09,0c3.58,1.4,8.78-2.18,13.13-.91,2.73.77,3.14.48,3.56-.49S71.3,11.12,70,11ZM56.64,7.7a.61.61,0,1,1,.6-.61A.6.6,0,0,1,56.64,7.7Z"/><circle class="cls-5" cx="68.42" cy="8.32" r="0.85"/><circle class="cls-6" cx="71.03" cy="6.49" r="0.6"/><circle class="cls-7" cx="71.32" cy="2.88" r="0.51"/><circle class="cls-8" cx="69.78" cy="0.51" r="0.51"/><circle class="cls-9" cx="68.02" cy="4.11" r="0.94"/></g></g></svg>