<svg xmlns="http://www.w3.org/2000/svg" viewBox="0 0 51.58 51.58"><defs><style>.cls-1{fill:#fff;}</style></defs><g id="Capa_2" data-name="Capa 2"><g id="Layer_1" data-name="Layer 1"><path class="cls-1" d="M25.79,0A25.75,25.75,0,0,0,4,39.46L.16,48.61A2.15,2.15,0,0,0,3,51.42l9.15-3.79A25.78,25.78,0,1,0,25.79,0Zm0,47.28A21.46,21.46,0,0,1,14.4,44l-1.88-1.18-6.4,2.65,2.65-6.4L7.59,37.17a21.47,21.47,0,1,1,18.2,10.11Z"/><path class="cls-1" d="M34.91,34.9a4.3,4.3,0,0,1-6.08,0L16.67,22.75a4.32,4.32,0,0,1,0-6.08l3-3,4.56,7.6L22,23.51l6.08,6.08,2.28-2.28L38,31.87Z"/></g></g></svg>